<?xml version="1.0" encoding="iso-8859-1"?>
<!-- Uploaded to: SVG Repo, www.svgrepo.com, Generator: SVG Repo Mixer Tools -->
<svg height="800px" width="800px" version="1.1" id="Layer_1" xmlns="http://www.w3.org/2000/svg" xmlns:xlink="http://www.w3.org/1999/xlink" 
	 viewBox="0 0 512.001 512.001" xml:space="preserve">
<path style="fill:#28549C;" d="M379.153,346.806c0,0,60.885,10.86,60.885,33.988c0,35.492-209.383,64.526-209.383,131.207h79.785
	c0,0,19.896-29.039,76.898-46.247c57.002-17.208,111.852-43.02,111.852-85.503c0-67.219-85.503-79.055-85.503-79.055l-32.977-13.702
	L379.153,346.806z"/>
<g style="opacity:0.29;">
	<path d="M412.76,301.196l-32.977-13.702l-1.558,59.312c0,0,12.92,2.307,26.857,7.053c7.362-12.98,19.209-32.305,31.762-46.445
		C423.233,302.65,412.76,301.196,412.76,301.196z"/>
</g>
<circle style="fill:#4675CF;" cx="221.878" cy="209.065" r="209.065"/>
<path style="fill:#2A8FE7;" d="M330.452,221.422C226.1,319.044,102.409,345.712,68.241,351.448
	c20.725,22.271,46.259,39.993,74.937,51.56C257.638,364.4,308.231,282.059,330.452,221.422z"/>
<path style="opacity:0.54;fill:#28549C;enable-background:new    ;" d="M90.023,240.374
	C105.544,118.477,221.879,72.549,221.879,72.549c-34.969-23.029-65.267-14.927-65.267-14.927S47.971,123.759,45.457,254
	L90.023,240.374z"/>
<path style="fill:#2A8FE7;" d="M214.282,177.991c8.53-70.667,38.787-93.42,38.787-93.42V63.097l-38.784-6.857l-18.704,31.851
	c0,0-42.286,55.9-38.97,127.059l12.247,18.24l61.797-24.323L214.282,177.991z"/>
<g>
	<path style="fill:#28549C;" d="M337.471,137.909C216.995,286.084,38.443,309.623,38.443,309.623l-20.057-52.429
		c0,0,155.661-9.959,276.137-158.134L337.471,137.909z"/>
	<path style="fill:#28549C;" d="M430.687,203.458C329.608,4.96,138.999,17.006,138.999,17.006l0,0
		c-21.597,9.311-41.311,22.152-58.413,37.806l0,0c0,0,229.573-28.487,344.602,197.409h1.107c2.922-13.926,4.469-28.358,4.469-43.153
		C430.763,207.192,430.736,205.322,430.687,203.458z"/>
	<path style="opacity:0.55;fill:#28549C;enable-background:new    ;" d="M190.32,414.94
		c180.603-35.78,205.765-212.328,205.765-212.328c-17.135-27.11-47.37-55.062-47.37-55.062S337.32,337.328,143.884,402.303
		c0,0,16.656,6.713,26.008,8.509l15.179,3.273L190.32,414.94z"/>
	<path style="opacity:0.47;fill:#28549C;enable-background:new    ;" d="M244.343,346.637l22.572-20.959
		c-46.32,10.647-74.595-13.051-74.595-13.051c-10.778,6.637-63.575,24.182-63.575,24.182s37.704,43.077,92.639,27.914l18.348-14.177
		C241.327,349.313,242.866,348.009,244.343,346.637z"/>
</g>
<path style="opacity:0.29;enable-background:new    ;" d="M346.836,41.439c26.027,34.859,41.439,78.108,41.439,124.958
	c0,115.465-93.602,209.067-209.067,209.067c-46.849,0-90.099-15.412-124.958-41.439c38.12,51.054,99.014,84.111,167.629,84.111
	c115.465,0,209.067-93.602,209.067-209.067C430.946,140.452,397.89,79.558,346.836,41.439z"/>
</svg>